<svg width="148" height="57" viewBox="0 0 148 57" fill="none" xmlns="http://www.w3.org/2000/svg">
<path d="M86.492 38.896C87.932 39.352 89.06 40.12 89.876 41.2C90.692 42.256 91.1 43.564 91.1 45.124C91.1 47.332 90.236 49.036 88.508 50.236C86.804 51.412 84.308 52 81.02 52H67.988V26.8H80.3C83.372 26.8 85.724 27.388 87.356 28.564C89.012 29.74 89.84 31.336 89.84 33.352C89.84 34.576 89.54 35.668 88.94 36.628C88.364 37.588 87.548 38.344 86.492 38.896ZM73.784 31.192V37.132H79.58C81.02 37.132 82.112 36.88 82.856 36.376C83.6 35.872 83.972 35.128 83.972 34.144C83.972 33.16 83.6 32.428 82.856 31.948C82.112 31.444 81.02 31.192 79.58 31.192H73.784ZM80.588 47.608C82.124 47.608 83.276 47.356 84.044 46.852C84.836 46.348 85.232 45.568 85.232 44.512C85.232 42.424 83.684 41.38 80.588 41.38H73.784V47.608H80.588ZM100.015 26.8H105.847V52H100.015V26.8ZM139.26 52L139.224 36.88L131.808 49.336H129.18L121.8 37.204V52H116.328V26.8H121.152L130.584 42.46L139.872 26.8H144.66L144.732 52H139.26Z" fill="#1A2026"/>
<path d="M47.3454 29.3672C47.8793 33.8983 47.023 38.4848 44.8902 42.5181C42.7574 46.5514 39.4488 49.841 35.4032 51.9505C31.3577 54.0601 26.7664 54.8899 22.2384 54.3299C17.7104 53.7699 13.4596 51.8466 10.0499 48.815C6.64017 45.7834 4.23265 41.7869 3.14666 37.3555C2.06068 32.9242 2.34755 28.2673 3.96922 24.0027C5.59089 19.7381 8.47073 16.0673 12.2268 13.4772C15.9828 10.8871 20.4375 9.5 25 9.5" stroke="#1A2026" stroke-width="5"/>
<path d="M25 32L54.5 2.5H144.5" stroke="#1A2026" stroke-width="5"/>
</svg>
